<svg xmlns="http://www.w3.org/2000/svg" width="1757" height="1484" viewBox="0 0 1757 1484" version="1.1"><path d="M 1444.688 488.502 C 1436.212 490.832, 1428.683 495.289, 1421.911 501.985 C 1406.629 517.097, 1403.165 537.486, 1412.622 556.666 C 1420.994 573.645, 1438.581 584.205, 1458.397 584.150 C 1482.824 584.082, 1503.830 566.721, 1508.049 543.113 C 1512.286 519.404, 1495.735 495.071, 1470.869 488.453 C 1464.276 486.698, 1451.160 486.722, 1444.688 488.502 M 1484 585.529 C 1475.792 589.226, 1470.836 597.485, 1469.445 609.787 C 1468.623 617.050, 1469.713 621.023, 1480.566 650.310 C 1484.651 661.335, 1488.108 670.866, 1488.247 671.490 C 1488.386 672.114, 1475.938 691.153, 1460.585 713.798 C 1435.219 751.212, 1432.388 755.014, 1429.585 755.436 C 1400.411 759.832, 1397.523 761.189, 1389.736 774.161 C 1383.802 784.046, 1380.341 796.240, 1368.494 849 C 1362.134 877.325, 1352.374 920.525, 1346.804 945 C 1341.234 969.475, 1336.479 991.421, 1336.236 993.769 C 1335.720 998.772, 1337.775 1002.654, 1341.424 1003.570 C 1344.019 1004.221, 1351.725 1001.284, 1353.642 998.913 C 1354.270 998.136, 1358.692 980.400, 1363.468 959.500 C 1383.166 873.301, 1393.330 829.373, 1398.127 809.708 C 1403.577 787.365, 1403.883 786.773, 1410.697 785.411 C 1413.668 784.816, 1413.816 784.949, 1414.467 788.804 C 1415.461 794.688, 1417.130 796.459, 1421.653 796.427 C 1428.519 796.379, 1430.778 795.215, 1434.939 789.583 L 1438.921 784.193 1443.028 785.235 C 1449.068 786.768, 1450.071 788.993, 1450.303 801.370 C 1450.543 814.241, 1451.489 815.824, 1458.088 814.405 C 1465.480 812.815, 1466.480 810.351, 1466.491 793.689 C 1466.501 777.709, 1465.615 774.877, 1458.025 766.643 L 1454.192 762.484 1477.290 733.722 C 1495.751 710.734, 1500.635 705.215, 1501.617 706.230 C 1502.293 706.928, 1505.496 712.289, 1508.736 718.142 C 1513.236 726.271, 1516.710 734.965, 1523.450 754.965 L 1532.273 781.147 1529.903 786.323 C 1528.365 789.682, 1524.543 794.487, 1519.017 800.005 C 1508.680 810.329, 1500.639 819.918, 1482.580 843.462 L 1468.803 861.425 1469.392 878.462 C 1469.717 887.833, 1470.263 909.788, 1470.606 927.250 L 1471.230 959 1466.365 959.004 C 1458.884 959.010, 1444.511 961.619, 1441.656 963.490 C 1437.548 966.181, 1434.710 973.290, 1434.196 982.179 L 1433.743 990 1443.122 990.140 C 1448.280 990.217, 1454.075 990.384, 1456 990.512 C 1457.925 990.640, 1469.175 990.914, 1481 991.122 L 1502.500 991.500 1503.032 936 L 1503.564 880.500 1522.759 851.798 C 1533.316 836.011, 1542.977 822.545, 1544.227 821.872 C 1546.279 820.768, 1553.845 820.512, 1554.846 821.513 C 1555.973 822.640, 1561.435 848.824, 1565.913 874.563 C 1568.682 890.479, 1571.661 907.550, 1572.535 912.500 C 1582.327 967.997, 1581.852 963.772, 1578.379 964.504 C 1566.046 967.105, 1552.671 972.160, 1550.394 975.081 C 1549.786 975.862, 1549.057 977.450, 1548.774 978.612 C 1548.088 981.428, 1549.833 992.279, 1551.098 993.061 C 1551.649 993.401, 1557.590 993.567, 1564.300 993.429 C 1585.738 992.989, 1619.489 991.805, 1619.832 991.481 C 1620.278 991.062, 1617.645 974.682, 1614.104 955.856 C 1612.516 947.410, 1609.344 926.775, 1607.055 910 C 1602.818 878.950, 1597.779 848.817, 1591.420 816.500 C 1589.472 806.600, 1586.357 790.372, 1584.498 780.437 C 1580.775 760.540, 1579.968 758.120, 1570.428 738.212 C 1566.544 730.107, 1558.333 708.960, 1550.349 686.500 C 1542.919 665.600, 1533.489 639.090, 1529.393 627.590 C 1525.298 616.089, 1520.545 604.051, 1518.833 600.838 C 1515.066 593.770, 1508.580 587.557, 1503.355 586.012 C 1496.593 584.011, 1487.853 583.794, 1484 585.529" stroke="none" fill="#8f3176" fill-rule="evenodd"/><path d="M 1297.919 424.833 C 1276.259 430.487, 1262.864 449.204, 1264.272 471.846 C 1264.703 478.782, 1265.392 481.400, 1268.349 487.346 C 1276.387 503.504, 1291.600 513.018, 1309.355 512.988 C 1335.318 512.945, 1355 493.746, 1355 468.462 C 1355 446.929, 1341.050 429.525, 1319.769 424.508 C 1311.726 422.611, 1306.110 422.695, 1297.919 424.833 M 1290 531.969 C 1266.190 535.323, 1247.914 551.377, 1238.761 576.978 C 1237.466 580.601, 1236.690 585.705, 1236.503 591.818 C 1236.160 603.122, 1236.825 602.248, 1217.500 616.790 C 1187.521 639.350, 1176.859 654.610, 1176.915 674.880 C 1176.938 683.363, 1179.011 698.137, 1181.142 705 C 1181.739 706.925, 1184.389 713.675, 1187.031 720 C 1193.877 736.394, 1194.403 740.101, 1193.684 766.835 C 1193.118 787.832, 1192.605 792.336, 1189.376 804.610 C 1188.958 806.196, 1189.401 806.918, 1191.160 807.519 C 1192.447 807.959, 1207.338 808.506, 1224.250 808.736 L 1255 809.153 1255 888.398 C 1255 977.223, 1254.664 972.929, 1262.287 981.589 C 1268.005 988.084, 1274.562 990.984, 1283.500 990.968 C 1294.787 990.949, 1303.908 985.362, 1309.033 975.330 L 1311.500 970.500 1311.500 888.889 L 1311.500 807.279 1332 806.574 C 1343.275 806.187, 1352.781 805.562, 1353.125 805.185 C 1354.442 803.743, 1355.863 741.315, 1354.997 723 C 1352.985 680.491, 1351.927 651.322, 1351.061 614.500 C 1350.263 580.569, 1349.883 574.503, 1348.134 567.831 C 1343.451 549.966, 1334.473 539.653, 1319.103 534.480 C 1311.628 531.964, 1298.237 530.808, 1290 531.969 M 1295.821 542.347 C 1289.661 544.069, 1284.683 547.983, 1281.272 553.784 L 1278.500 558.500 1278.500 632 C 1278.500 713.505, 1278.027 707.621, 1285.164 714.905 C 1297.287 727.278, 1318.926 723.378, 1326.129 707.522 C 1327.844 703.747, 1327.956 699.111, 1327.956 632 C 1327.956 553.045, 1328.274 557.196, 1321.631 549.328 C 1316.203 542.898, 1304.840 539.825, 1295.821 542.347 M 1294 545.594 C 1289.454 547.564, 1285.353 551.507, 1282.658 556.500 C 1280.505 560.491, 1280.500 560.653, 1280.500 632 L 1280.500 703.500 1282.706 707.624 C 1292.444 725.828, 1319.476 722.946, 1324.984 703.118 C 1326.431 697.907, 1326.350 566.276, 1324.896 560.501 C 1323.558 555.188, 1318.164 548.635, 1312.932 545.966 C 1308.248 543.576, 1299.075 543.396, 1294 545.594" stroke="none" fill="#e47519" fill-rule="evenodd"/><path d="M 1060.746 510.031 C 1041.694 514.801, 1027.503 534.819, 1029.337 554.338 C 1030.487 566.581, 1034.411 574.451, 1043.534 582.810 C 1049.005 587.824, 1051.550 589.352, 1058.004 591.501 C 1080.897 599.125, 1104.415 587.293, 1112.066 564.301 C 1113.818 559.038, 1114.155 556.121, 1113.820 549.126 C 1113.059 533.205, 1104.621 520.382, 1090.226 513.267 C 1083.490 509.938, 1081.889 509.559, 1073.635 509.336 C 1068.611 509.201, 1062.811 509.514, 1060.746 510.031 M 1024.500 607.680 C 1018.042 608.646, 1006.042 611.970, 1001.780 613.973 C 993.070 618.068, 989.998 623.878, 988.034 639.974 C 987.407 645.109, 987.001 677.609, 987.004 722.474 C 987.007 795.566, 987.034 796.543, 989.077 799.895 C 991.779 804.327, 992.862 805.324, 996.661 806.877 C 1004.843 810.221, 1014.103 806.199, 1017.444 797.848 C 1018.794 794.474, 1019 785.632, 1019 730.958 L 1019 667.956 1023.696 664.978 C 1026.278 663.340, 1028.753 662, 1029.196 662 C 1029.638 662, 1030 732.570, 1030 818.822 C 1030 992.930, 1029.548 981.348, 1036.623 988.423 C 1039.397 991.197, 1041.126 991.997, 1045.543 992.549 C 1049.212 993.007, 1052.060 992.804, 1054.162 991.933 C 1058.714 990.048, 1063.736 984.614, 1064.942 980.269 C 1065.631 977.790, 1065.991 949.202, 1065.994 896.750 L 1066 817 1071.477 817 L 1076.955 817 1077.227 898.750 L 1077.500 980.500 1079.812 984.188 C 1083.789 990.531, 1091.994 993.974, 1099.693 992.530 C 1104.257 991.674, 1110.531 985.348, 1111.976 980.146 C 1112.640 977.756, 1112.991 922.308, 1112.994 819.250 C 1112.997 732.763, 1113.170 662, 1113.378 662 C 1113.586 662, 1115.282 662.638, 1117.148 663.417 C 1124.391 666.444, 1123.883 661.478, 1124.208 732.532 L 1124.500 796.500 1126.851 800.281 C 1134.254 812.188, 1152.371 809.477, 1156.023 795.915 C 1156.783 793.091, 1157 769.161, 1156.737 717.179 C 1156.377 646.039, 1156.262 642.070, 1154.292 633.418 C 1153.155 628.422, 1151.497 622.927, 1150.607 621.207 C 1148.491 617.114, 1142.586 613.762, 1131.500 610.358 L 1122.500 607.595 1075 607.413 C 1048.875 607.313, 1026.150 607.433, 1024.500 607.680" stroke="none" fill="#da127a" fill-rule="evenodd"/><path d="M 880.854 437.093 C 864.527 438.888, 850.003 452.149, 845.361 469.500 C 841.608 483.530, 846.434 499.446, 857.662 510.065 C 876.919 528.277, 907.863 524.752, 922.100 502.723 C 927.506 494.360, 929.302 487.422, 928.802 476.839 C 928.447 469.325, 927.902 467.187, 924.687 460.681 C 916.391 443.895, 899.868 435.003, 880.854 437.093 M 833 537.732 C 814.454 543.833, 809.055 547.301, 806.608 554.686 C 802.510 567.057, 802.037 577.261, 802.018 653.800 C 801.998 734.535, 801.684 730.422, 808.249 735.325 C 813.241 739.053, 818.394 740.308, 826.387 739.741 C 830.299 739.464, 834.288 738.911, 835.250 738.512 C 836.911 737.823, 837 743.545, 837 850.527 C 837 936.651, 837.289 964.234, 838.226 967.360 C 839.674 972.191, 845.430 978.289, 850.727 980.601 C 853.069 981.624, 857.354 982.271, 862.026 982.308 C 868.447 982.360, 870.283 981.962, 874.526 979.603 C 880.165 976.468, 883.732 972.464, 885.520 967.263 L 886.746 963.699 887.877 967.126 C 889.548 972.189, 894.385 977.524, 899.590 980.044 C 905.590 982.948, 915.615 983.227, 922.232 980.674 C 928.671 978.190, 934.524 971.445, 935.930 964.889 C 936.654 961.517, 937 923.939, 937 848.883 L 937 737.865 939.250 738.683 C 940.487 739.132, 945.325 739.500, 950 739.500 C 957.541 739.500, 959.046 739.179, 963.342 736.654 C 972.419 731.318, 971.953 735.677, 971.978 655.970 C 972.001 583.464, 971.407 570.565, 967.423 556.987 C 964.761 547.917, 959.897 544.188, 944.041 539.060 L 934.581 536 886.041 536.126 C 846.127 536.230, 836.700 536.515, 833 537.732" stroke="none" fill="#fff401" fill-rule="evenodd"/><path d="M 703.135 470.030 C 694.929 471.223, 684.044 477.077, 678.256 483.411 C 661.743 501.478, 662.470 527.698, 679.946 544.367 C 697.528 561.137, 723.980 560.897, 741.278 543.811 C 756.308 528.966, 758.583 506.584, 746.850 489.014 C 742.457 482.435, 735.150 476.281, 727.948 473.095 C 724.005 471.351, 712.203 468.816, 709.500 469.132 C 708.950 469.197, 706.086 469.601, 703.135 470.030 M 674.500 584.933 C 661.263 585.471, 658.912 585.833, 654.500 588.021 C 649.403 590.548, 648.944 591.169, 643.913 602.341 C 641.310 608.122, 641.721 608.146, 627 601.386 C 618.529 597.496, 615.192 596.488, 609.732 596.169 C 601.894 595.710, 598.510 596.832, 594.213 601.317 C 585.613 610.292, 583.403 622.580, 588.866 631.054 C 590.442 633.499, 593.142 636.822, 594.866 638.437 C 596.590 640.052, 598.011 641.852, 598.025 642.437 C 598.067 644.178, 607.013 654.344, 614.244 660.869 C 627.279 672.629, 647.949 688.278, 665.270 699.500 C 669.515 702.250, 672.824 704.950, 672.623 705.500 C 671.504 708.567, 624 878.921, 624 879.866 C 624 880.681, 630.897 881, 648.500 881 L 673 881 673.006 929.250 C 673.009 959.355, 673.400 978.899, 674.044 981.219 C 676.107 988.647, 684.203 994.927, 691.782 994.978 C 698.584 995.024, 706.572 989.862, 709.083 983.800 L 710.311 980.835 711.539 983.667 C 714.059 989.479, 722.036 994.927, 728.101 994.978 C 734.858 995.035, 742.032 990.727, 745.273 984.666 C 747.478 980.542, 747.503 980.003, 747.794 930.750 L 748.087 881 773.111 881 C 796.471 881, 798.101 880.884, 797.624 879.250 C 795.206 870.962, 747.634 701.008, 747.285 699.412 C 746.763 697.024, 748.937 694.599, 762.425 682.522 C 771.866 674.069, 778.457 665.053, 781.449 656.500 C 783.966 649.303, 785.707 614.119, 784.036 604.212 C 781.906 591.587, 777.819 588.391, 760.572 585.865 C 752.317 584.655, 696.283 584.049, 674.500 584.933 M 650.389 611.432 C 648.678 612.177, 644 616.711, 639.994 621.507 C 630.382 633.015, 626.567 635.365, 614.913 636.958 L 605.755 638.209 608.136 640.591 L 610.518 642.973 618.664 640.061 C 630.543 635.816, 632.688 634.497, 641.247 626.184 C 645.507 622.046, 649.163 618.849, 649.370 619.080 C 650.002 619.786, 648.181 650.891, 646.909 661.109 C 645.898 669.226, 646.190 677.181, 647.451 675.868 C 647.645 675.666, 648.710 671, 649.818 665.500 C 652.103 654.153, 653.558 636.383, 653.186 624.375 C 652.947 616.661, 653.049 616.220, 655.217 615.639 C 661.478 613.962, 671.229 616.869, 691.627 626.494 C 717.946 638.913, 731.050 651.486, 729.685 663.012 C 728.925 669.430, 722.274 685.618, 718.747 689.635 C 717.142 691.463, 713.019 694.342, 709.584 696.033 C 702.329 699.605, 688.914 702.298, 685.273 700.914 C 681.476 699.470, 680.542 699.836, 682.500 702 C 686.948 706.915, 712.352 702.193, 719.760 695.075 C 722.386 692.551, 727.247 683.237, 730.634 674.240 C 732.277 669.875, 733 665.869, 733 661.127 C 733 655.211, 732.620 653.776, 730.155 650.373 C 721.252 638.082, 685.612 617.041, 664.290 611.487 C 657.343 609.678, 654.446 609.666, 650.389 611.432 M 704.474 660.866 C 700.609 662.865, 688.735 668.100, 678.087 672.500 C 667.439 676.900, 659.462 680.645, 660.360 680.823 C 662.624 681.270, 680.996 678.063, 683.474 676.788 C 689.611 673.628, 702.488 665.442, 705.162 662.999 C 708.615 659.846, 713.048 658.660, 717.819 659.614 C 721.454 660.341, 722.283 658.577, 718.750 657.630 C 714.600 656.518, 711.542 657.211, 704.474 660.866" stroke="none" fill="#009242" fill-rule="evenodd"/><path d="M 546.329 673.093 C 527.848 680.199, 522.480 703.949, 535.900 719.234 C 543.474 727.859, 557.757 730.667, 568.500 725.642 C 585.849 717.527, 590.248 695.333, 577.508 680.192 C 576.084 678.500, 572.166 675.740, 568.800 674.058 C 561.426 670.373, 554.208 670.063, 546.329 673.093 M 516.319 738.882 C 505.362 742.068, 502.875 744.876, 501.051 756.117 C 500.435 759.915, 500.012 783.094, 500.008 813.350 L 500 864.200 503.400 867.600 C 506.123 870.323, 507.589 871, 510.765 871 C 515.805 871, 519.601 868.098, 520.960 863.205 C 521.588 860.943, 521.991 843.444, 521.994 818.276 L 522 777.051 524.950 775.526 C 526.573 774.687, 528.148 774, 528.450 774 C 528.753 774, 529 821.633, 529 879.852 L 529 985.704 531.287 989.102 C 535.991 996.093, 546.009 996.093, 550.713 989.102 L 553 985.704 553 931.352 L 553 877 556.500 877 L 560 877 560 930.599 C 560 977.465, 560.199 984.618, 561.586 987.540 C 565.525 995.842, 576.038 996.852, 581.832 989.486 L 584 986.730 584 880.365 C 584 821.864, 584.247 774, 584.550 774 C 586.122 774, 590.840 777.140, 591.379 778.545 C 591.720 779.435, 592 798.831, 592 821.648 C 592 850.231, 592.347 863.811, 593.117 865.316 C 595.045 869.085, 598.250 870.954, 602.827 870.978 C 606.293 870.996, 607.735 870.418, 610.077 868.077 L 613 865.154 613 811.787 C 613 744.956, 613.003 744.974, 600.085 739.771 C 594.695 737.600, 593.245 737.514, 558.500 737.303 C 526.399 737.108, 521.831 737.279, 516.319 738.882" stroke="none" fill="#25126e" fill-rule="evenodd"/><path d="M 285 562.379 C 277.178 564.134, 272.232 567.004, 266.399 573.172 C 245.451 595.321, 260.276 632.025, 290.794 633.568 C 304.631 634.267, 318.128 625.854, 324.595 612.500 C 327.153 607.216, 327.496 605.426, 327.470 597.500 C 327.447 590.404, 326.975 587.478, 325.241 583.670 C 317.910 567.570, 301.222 558.740, 285 562.379 M 280.357 644.023 C 273.158 646.874, 266.700 652.912, 263.064 660.189 L 260 666.319 260.010 737.410 L 260.020 808.500 262.459 813.739 C 266.074 821.504, 273.469 828.299, 281.113 830.881 C 287.264 832.958, 288.742 833, 355.963 833 L 424.537 833 426.018 835.373 C 426.833 836.678, 428.707 839.266, 430.183 841.123 C 431.658 842.980, 437.031 850.350, 442.122 857.500 C 447.213 864.650, 451.638 870.725, 451.954 871 C 452.271 871.275, 454.954 875.231, 457.918 879.791 C 463.991 889.136, 467.758 892.338, 472.940 892.558 C 477.863 892.767, 481.220 891.423, 484.606 887.889 C 487.120 885.266, 487.476 884.168, 487.364 879.387 C 487.207 872.719, 488.217 874.412, 457.641 829.543 C 444.913 810.867, 432.225 793.204, 429.443 790.293 L 424.387 785 374.693 785 L 325 785 325 765 L 325 745 366.750 744.998 C 404.522 744.997, 408.827 744.830, 411.929 743.248 C 417.110 740.606, 419.385 736.870, 419.385 731 C 419.385 725.593, 417.573 722.264, 412.616 718.562 C 409.945 716.566, 408.491 716.491, 367.504 716.219 L 325.153 715.938 324.827 691.219 C 324.505 666.890, 324.458 666.411, 321.849 660.845 C 318.700 654.128, 313.090 648.398, 306.384 645.049 C 299.543 641.633, 287.580 641.161, 280.357 644.023 M 226.904 724.885 C 194.947 746.035, 173.070 778.618, 164.848 817.312 C 161.658 832.325, 161.683 859.256, 164.901 874 C 171.463 904.069, 183.474 926.273, 204.947 948.029 C 211.446 954.613, 217.197 960, 217.728 960 C 218.259 960, 219.621 960.788, 220.754 961.750 C 231.497 970.878, 261.174 984.677, 274 986.508 C 274.825 986.626, 276.175 987.013, 277 987.368 C 282.794 989.861, 316.361 990.299, 329.500 988.054 C 341.064 986.077, 358.056 980.402, 369.500 974.694 C 377.269 970.819, 391.134 961.797, 395.801 957.579 C 406.664 947.763, 418.852 934.702, 421.415 930.131 C 421.918 929.234, 422.638 928.275, 423.015 928 C 427.254 924.910, 442.978 890.818, 442.995 884.680 C 443 882.678, 441.398 880.189, 426.645 859.278 C 421.126 851.456, 416.450 845.217, 416.253 845.414 C 416.056 845.611, 415.451 850.210, 414.909 855.636 C 410.132 903.416, 378.434 940.508, 331.500 953.237 C 324.718 955.076, 320.758 955.412, 305.500 955.447 C 288.830 955.485, 286.761 955.283, 277.500 952.716 C 239.710 942.239, 210.254 913.130, 199.546 875.680 C 195.605 861.895, 194.335 842.810, 196.475 829.500 C 197.543 822.855, 198.342 818.987, 199.471 815 C 201.108 809.218, 207.551 793.644, 209.741 790.175 C 214.983 781.872, 223.369 771.532, 230.565 764.500 L 238.752 756.500 239.374 737.250 C 239.884 721.488, 239.753 718, 238.653 718 C 237.913 718, 232.627 721.098, 226.904 724.885" stroke="none" fill="#d61d12" fill-rule="evenodd"/><path d="M 855.500 2.368 C 852.750 3.660, 764.550 46.242, 659.500 96.994 C 554.450 147.746, 463.100 191.857, 456.500 195.019 C 449.900 198.181, 437.075 204.361, 428 208.753 C 403.259 220.727, 354.359 244.361, 338.500 252.010 C 330.800 255.723, 317.975 261.912, 310 265.762 C 281.925 279.315, 265.359 287.306, 251.500 293.980 C 143.455 346.014, 32.606 399.741, 29.268 401.693 C 21.251 406.383, 16.016 414.893, 15.256 424.471 C 13.817 442.588, 27.571 456.857, 46.733 457.127 C 50.084 457.174, 54.553 456.658, 56.663 455.981 C 58.773 455.304, 171.200 401.307, 306.500 335.987 C 441.800 270.668, 623.442 182.974, 710.149 141.112 C 796.856 99.251, 868.302 65, 868.919 65 C 869.922 65, 987.036 121.452, 1522.172 379.886 C 1610.061 422.331, 1681.792 456.395, 1684.244 456.853 C 1690.237 457.973, 1699.949 456.687, 1705.389 454.054 C 1711.377 451.155, 1717.118 445.435, 1720.081 439.415 C 1723.210 433.057, 1723.453 420.489, 1720.553 415 C 1717.606 409.423, 1714.214 405.407, 1710.212 402.759 C 1707.184 400.755, 1638.390 367.255, 1549.500 324.498 C 1541.250 320.529, 1514.250 307.485, 1489.500 295.509 C 1464.750 283.534, 1439.100 271.149, 1432.500 267.988 C 1425.900 264.826, 1412.400 258.308, 1402.500 253.503 C 1392.600 248.698, 1379.100 242.174, 1372.500 239.004 C 1351.614 228.976, 1305.361 206.643, 1256 182.753 C 1246.925 178.361, 1234.100 172.182, 1227.500 169.022 C 1220.900 165.861, 1142.600 128.046, 1053.500 84.988 C 964.400 41.930, 888.267 5.193, 884.316 3.350 C 877.967 0.390, 876.163 0.001, 868.816 0.010 C 862.188 0.018, 859.485 0.496, 855.500 2.368 M 199 1034.695 C 190.460 1035.200, 172.479 1037.834, 162 1040.116 C 78.928 1058.206, 18.709 1116.061, 2.868 1193 C 0.747 1203.299, 0.500 1207.110, 0.500 1229.500 C 0.500 1257.690, 1.657 1267.011, 7.638 1287 C 11.919 1301.307, 22.722 1323.254, 31.758 1336 C 35.462 1341.225, 44.119 1351.145, 50.996 1358.044 C 85.105 1392.262, 133.859 1413.560, 194 1420.515 C 232.092 1424.921, 277.180 1419.929, 311.599 1407.497 C 339.483 1397.425, 361.093 1383.959, 380.548 1364.530 C 399.564 1345.541, 410.713 1327.976, 418.476 1304.778 C 421.544 1295.609, 426 1274.362, 426 1268.901 C 426 1267.052, 424.157 1267, 358.519 1267 L 291.038 1267 290.417 1269.750 C 283.499 1300.357, 267.805 1318.856, 242.928 1325.725 C 233.819 1328.240, 206.267 1328.249, 197 1325.740 C 165.635 1317.246, 145.130 1290.434, 138.426 1249.150 C 136.249 1235.739, 136.912 1210.751, 139.797 1197.500 C 146.168 1168.238, 161.402 1144.854, 180 1135.789 C 192.443 1129.724, 198.279 1128.580, 217 1128.538 C 236.999 1128.492, 245.209 1130.124, 258.083 1136.704 C 273.253 1144.458, 283.124 1156.131, 288.622 1172.822 L 291.317 1181 357.159 1181 C 421.062 1181, 423 1180.944, 423 1179.109 C 423 1176.025, 418.368 1159.132, 415.073 1150.195 C 405.782 1125.002, 394.112 1107.003, 374.057 1086.936 C 353.534 1066.401, 322.952 1050.008, 289.406 1041.561 C 265.865 1035.633, 229.659 1032.883, 199 1034.695 M 1549 1035.587 C 1505.780 1038.361, 1470.221 1046.374, 1444.774 1059.073 C 1411.967 1075.444, 1392.907 1096.129, 1385.275 1123.644 C 1382.765 1132.694, 1382.549 1134.890, 1382.633 1150.500 C 1382.734 1169.349, 1384.285 1177.599, 1390.037 1189.893 C 1396.159 1202.976, 1408.361 1216.738, 1422.127 1226.086 C 1432.027 1232.809, 1450.714 1241.651, 1465.200 1246.467 C 1480.514 1251.558, 1518.818 1261.734, 1550 1268.996 C 1585.012 1277.149, 1601.262 1282.828, 1612.755 1290.928 C 1620.797 1296.596, 1623.476 1300.854, 1623.432 1307.902 C 1623.348 1321.377, 1616.846 1328.424, 1600.831 1332.398 C 1589.617 1335.180, 1577.174 1336.275, 1563.500 1335.683 C 1528.691 1334.174, 1507.502 1320.263, 1502.950 1295.930 C 1502.288 1292.393, 1501.593 1288.938, 1501.405 1288.250 C 1501.135 1287.266, 1486.607 1287, 1433.031 1287 L 1365 1287 1365.004 1292.250 C 1365.009 1299.312, 1367.468 1314.045, 1370.061 1322.558 C 1372.986 1332.156, 1380.090 1346.223, 1385.992 1354.102 C 1393.053 1363.527, 1408.274 1377.718, 1419.068 1384.938 C 1464.795 1415.524, 1539.602 1427.766, 1614.500 1416.920 C 1664.569 1409.670, 1702.595 1393.775, 1727.873 1369.531 C 1748.760 1349.498, 1757 1329.739, 1757 1299.685 C 1756.999 1268.782, 1748.991 1248.722, 1729.048 1229.668 C 1703.787 1205.534, 1667.265 1192.087, 1573.581 1172.428 C 1539.311 1165.237, 1524.025 1160.258, 1517.734 1154.241 C 1509.165 1146.044, 1513.908 1129.060, 1526.544 1122.695 C 1534.029 1118.925, 1542.206 1117.586, 1558 1117.543 C 1574.913 1117.497, 1581.719 1118.730, 1591.946 1123.695 C 1597.985 1126.627, 1604.893 1132.998, 1607.611 1138.142 C 1608.587 1139.989, 1610.119 1144.875, 1611.015 1149 L 1612.644 1156.500 1675.851 1156.757 C 1732.958 1156.990, 1739.116 1156.861, 1739.670 1155.419 C 1740.791 1152.496, 1737.163 1130.281, 1734.019 1120.825 C 1725.733 1095.894, 1708.166 1075.494, 1682.957 1061.529 C 1659.310 1048.428, 1634.548 1041.128, 1601.500 1037.513 C 1588.075 1036.045, 1558.673 1034.966, 1549 1035.587 M 476.247 1227.750 L 476.500 1412.500 542.500 1412.500 L 608.500 1412.500 608.757 1347.750 L 609.015 1283 642.257 1283.020 C 689.784 1283.047, 701.928 1285.065, 716.295 1295.317 C 731.458 1306.137, 736.615 1320.273, 741.534 1364.500 C 743.939 1386.124, 746.880 1400.990, 750.437 1409.505 L 751.898 1413 818.449 1413 C 855.052 1413, 885 1412.630, 885 1412.178 C 885 1411.725, 883.661 1408.884, 882.025 1405.863 C 878.712 1399.745, 876.289 1389.786, 875.005 1377 C 869.190 1319.112, 866.109 1303.708, 856.500 1284.500 C 850.360 1272.224, 843.571 1263.603, 833.993 1255.916 C 828.452 1251.469, 815.434 1244.326, 809.604 1242.534 C 808.190 1242.099, 809.783 1240.947, 815.861 1238.008 C 842.431 1225.159, 858.977 1205.414, 867.585 1176.284 C 869.559 1169.601, 870.310 1164.381, 870.724 1154.463 C 871.618 1133.022, 867.530 1118.433, 855.618 1100.554 C 838.050 1074.186, 809.714 1056.671, 772.500 1049.176 C 743.562 1043.348, 733.708 1043, 597.797 1043 L 475.995 1043 476.247 1227.750 M 1064.050 1045.750 C 1063.350 1047.263, 1057.720 1059.975, 1051.537 1074 C 1045.355 1088.025, 1025.991 1131.900, 1008.506 1171.500 C 991.022 1211.100, 966.494 1266.675, 953.999 1295 C 941.505 1323.325, 924.863 1361.046, 917.016 1378.825 C 908.198 1398.806, 903.106 1411.506, 903.682 1412.082 C 904.245 1412.645, 931.464 1412.912, 972.406 1412.757 L 1040.197 1412.500 1050.736 1386.750 L 1061.274 1361 1132.010 1361 L 1202.746 1361 1213.245 1386.750 L 1223.744 1412.500 1292.065 1412.757 C 1329.642 1412.898, 1360.757 1412.643, 1361.211 1412.189 C 1361.665 1411.735, 1354.795 1394.969, 1345.944 1374.932 C 1337.093 1354.894, 1324.290 1325.900, 1317.493 1310.500 C 1310.696 1295.100, 1290.238 1248.750, 1272.030 1207.500 C 1253.823 1166.250, 1230.055 1112.369, 1219.213 1087.764 L 1199.500 1043.028 1132.411 1043.014 L 1065.321 1043 1064.050 1045.750 M 609 1166.500 L 609 1203 653.935 1203 C 690.520 1203, 700.227 1202.714, 706.175 1201.463 C 727.378 1197.003, 738.485 1185.698, 739.692 1167.351 C 741.100 1145.946, 726.959 1134.513, 694.789 1131.046 C 689.449 1130.471, 667.961 1130, 647.039 1130 L 609 1130 609 1166.500 M 1132.804 1159.508 C 1132.467 1160.054, 1125.582 1178.275, 1117.505 1200 C 1109.428 1221.725, 1099.485 1248.437, 1095.410 1259.359 C 1091.334 1270.281, 1088 1279.394, 1088 1279.609 C 1088 1279.824, 1107.350 1280, 1131 1280 C 1154.650 1280, 1174 1279.830, 1174 1279.623 C 1174 1279.415, 1165.409 1253.878, 1154.910 1222.873 C 1144.410 1191.868, 1135.279 1164.704, 1134.618 1162.508 C 1133.958 1160.313, 1133.141 1158.963, 1132.804 1159.508" stroke="none" fill="#ffffff" fill-rule="evenodd"/></svg>